<?xml version="1.0" encoding="UTF-8"?> <!-- Generator: Adobe Illustrator 22.0.1, SVG Export Plug-In . SVG Version: 6.00 Build 0) --> <svg xmlns="http://www.w3.org/2000/svg" xmlns:xlink="http://www.w3.org/1999/xlink" id="Слой_1" x="0px" y="0px" viewBox="0 0 1200 300" style="enable-background:new 0 0 1200 300;" xml:space="preserve"> <style type="text/css"> .st0{fill:#1C3665;} .st1{fill:#00AEEF;} </style> <g> <g> <path class="st0" d="M103.2,198.8c30.4,15.1,57,17.1,82.6-5.3c10.8-9.4,23-18.4,36.2-23.4c7.2-2.8,20.1,0.5,25.8,5.9 c3.4,3.2,0.8,19.8-4.3,23.7c-24.5,18.8-50.6,35.7-76.7,52.2c-4.9,3.1-13.3,2.6-19.5,1.1c-21.4-5-42.7-10.7-63.7-17 c-15.5-4.6-29.4-8.3-44.7,2.9c-4.4,3.3-20.3-1.1-23.6-6.4c-3.4-5.4-0.8-20.4,4.4-24.4c23.9-18.4,49.2-35.4,75.2-50.8 c5.8-3.4,22.1-0.3,24.1,4.1c3.2,7-0.6,18-3.3,26.7C114.6,191.8,108.8,194.1,103.2,198.8z"></path> <g> <path class="st1" d="M162.3,112.9c-30.4-15.1-57-17.1-82.6,5.3c-10.8,9.4-23,18.4-36.2,23.4c-7.2,2.8-20.1-0.5-25.8-5.9 c-3.4-3.2-0.8-19.8,4.3-23.7c24.5-18.8,50.6-35.7,76.7-52.2c4.9-3.1,13.3-2.6,19.5-1.1c21.4,5,42.7,10.7,63.7,17 c15.5,4.6,29.4,8.3,44.7-2.9c4.4-3.3,20.3,1.1,23.6,6.4c3.4,5.4,0.8,20.4-4.4,24.4c-23.9,18.4-49.2,35.4-75.2,50.8 c-5.8,3.4-22.1,0.3-24.1-4.1c-3.2-7,0.6-18,3.3-26.7C151,119.8,156.7,117.5,162.3,112.9z"></path> </g> </g> <g> <path class="st0" d="M350.7,83.8V122h-12.4V85.4l-33.3,32.5c-1.6,1.7-3.2,2.9-5,3.7c-1.7,0.7-3.5,1.1-5.4,1.1 c-1.9,0-3.6-0.4-5.1-1.1c-1.5-0.7-2.8-1.7-3.8-3c-1-1.2-1.8-2.7-2.4-4.4c-0.5-1.7-0.8-3.4-0.8-5.3V73.2h12.5v36.5l33.4-32.8 c3.2-3.2,6.6-4.8,10.2-4.8c1.6,0,3.1,0.2,4.6,0.7c1.5,0.5,2.8,1.2,3.9,2.1c1.1,1,2,2.2,2.7,3.7C350.3,80.1,350.7,81.8,350.7,83.8z "></path> <path class="st0" d="M409.4,73.1c2.5,0,4.9,0.3,7,0.9c2.1,0.6,4,1.5,5.6,2.7c1.6,1.2,2.8,2.8,3.7,4.7c0.9,1.9,1.3,4.1,1.3,6.7 c0,3.2-0.9,6.3-2.8,9.2c0.5,0.7,0.9,1.4,1.4,2.1c0.5,0.7,0.9,1.5,1.2,2.2c0.4,0.7,0.7,1.5,0.9,2.3c0.2,0.8,0.4,1.5,0.4,2.2 c0,1.5-0.2,2.9-0.6,4.2c-0.4,1.3-1,2.6-1.8,3.8c-0.8,1.2-1.7,2.3-2.7,3.2c-1,1-2.2,1.8-3.4,2.5c-1.2,0.7-2.5,1.2-3.9,1.6 c-1.4,0.4-2.8,0.6-4.2,0.6h-54.4V73.1H409.4z M414,91v-5.5h-43.7V91H414z M414,109.3v-5.6h-43.7v5.6H414z"></path> <path class="st0" d="M448.8,122h-14l19-36.8c1-1.9,1.9-3.6,2.8-5c0.9-1.5,1.9-2.8,2.9-3.8c1.1-1,2.3-1.8,3.6-2.4 c1.3-0.6,2.9-0.8,4.8-0.8c1.8,0,3.4,0.3,4.6,0.8c1.3,0.5,2.4,1.4,3.4,2.4c1,1.1,1.9,2.4,2.8,3.9c0.9,1.6,1.9,3.3,2.9,5.3l19,36.5 h-13.5l-7.3-12.8h-24.3L448.8,122z M461.9,96.7h11.6l-5.8-10.4L461.9,96.7z"></path> <path class="st0" d="M519.7,73.1v18h45.1v-18h12.4V122h-12.4v-18.5h-45.1V122h-12.4V73.1H519.7z"></path> <path class="st0" d="M583.8,73.1h69.5v12.4h-28.5V122h-12.6V85.5h-28.4V73.1z"></path> <path class="st0" d="M677.3,72.9h51.3v12.6h-56.2v5.7h56.2v12.7h-56.2v5.3h56.2v13h-51.4c-2.3,0-4.4-0.4-6.5-1.2 c-2.1-0.8-3.9-1.9-5.5-3.3c-1.6-1.4-2.9-3.1-3.8-5c-1-1.9-1.4-4.1-1.4-6.4V88.6c0-2.5,0.5-4.7,1.4-6.6c0.9-2,2.1-3.6,3.7-5 c1.6-1.3,3.4-2.4,5.5-3.1C672.7,73.2,674.9,72.9,677.3,72.9z"></path> <path class="st0" d="M752.6,72.9h51.3v12.6h-56.2v5.7h56.2v12.7h-56.2v5.3h56.2v13h-51.4c-2.3,0-4.4-0.4-6.5-1.2 c-2.1-0.8-3.9-1.9-5.5-3.3c-1.6-1.4-2.9-3.1-3.8-5c-1-1.9-1.4-4.1-1.4-6.4V88.6c0-2.5,0.5-4.7,1.4-6.6c0.9-2,2.1-3.6,3.7-5 c1.6-1.3,3.4-2.4,5.5-3.1C748,73.2,750.2,72.9,752.6,72.9z"></path> <path class="st0" d="M862.8,73.1c2.5,0,4.9,0.3,7,0.9c2.1,0.6,4,1.5,5.6,2.7c1.6,1.2,2.8,2.8,3.7,4.7c0.9,1.9,1.3,4.1,1.3,6.7 c0,3.2-0.9,6.3-2.8,9.2c0.5,0.7,0.9,1.4,1.4,2.1c0.4,0.7,0.9,1.5,1.2,2.2c0.4,0.7,0.7,1.5,0.9,2.3c0.2,0.8,0.4,1.5,0.4,2.2 c0,1.5-0.2,2.9-0.6,4.2c-0.4,1.3-1,2.6-1.8,3.8c-0.8,1.2-1.6,2.3-2.7,3.2c-1,1-2.2,1.8-3.4,2.5c-1.2,0.7-2.5,1.2-3.9,1.6 c-1.4,0.4-2.8,0.6-4.2,0.6h-54.4V73.1H862.8z M867.3,91v-5.5h-43.7V91H867.3z M867.3,109.3v-5.6h-43.7v5.6H867.3z"></path> <path class="st0" d="M957.7,73.1v12.3h-56.9v24.4h56.9V122h-53.6c-2,0-4-0.4-5.9-1.1c-1.9-0.7-3.7-1.7-5.2-3 c-1.5-1.3-2.7-2.8-3.6-4.5c-0.9-1.8-1.4-3.7-1.4-5.8V91.2c0-6.1,1.6-10.6,4.7-13.6c3.1-3,7.8-4.4,13.9-4.4H957.7z"></path> <path class="st0" d="M1008.2,73.1h25.3l-42.1,24.4l42.4,24.4h-25.7l-22.1-12.7c-1-0.6-2-1.2-2.8-1.7c-0.8-0.6-1.6-1.2-2.2-1.8 s-1.2-1.3-1.7-2.1c-0.5-0.7-1-1.6-1.3-2.5V122h-13.7V73.1H978v21.1c0.4-0.9,0.9-1.8,1.4-2.6c0.6-0.8,1.2-1.5,1.9-2.1 c0.7-0.7,1.6-1.3,2.5-1.9c0.9-0.6,1.9-1.2,3.1-1.9L1008.2,73.1z"></path> <path class="st0" d="M1108.8,83.8V122h-12.4V85.4l-33.3,32.5c-1.6,1.7-3.2,2.9-5,3.7c-1.7,0.7-3.5,1.1-5.4,1.1 c-1.9,0-3.6-0.4-5.1-1.1c-1.5-0.7-2.8-1.7-3.8-3c-1-1.2-1.8-2.7-2.4-4.4c-0.6-1.7-0.8-3.4-0.8-5.3V73.2h12.5v36.5l33.4-32.8 c3.2-3.2,6.6-4.8,10.2-4.8c1.6,0,3.1,0.2,4.6,0.7c1.5,0.5,2.8,1.2,3.9,2.1c1.1,1,2,2.2,2.7,3.7 C1108.4,80.1,1108.8,81.8,1108.8,83.8z"></path> <path class="st0" d="M1132.8,72.9h51.3v12.6h-56.2v5.7h56.2v12.7h-56.2v5.3h56.2v13h-51.4c-2.3,0-4.4-0.4-6.5-1.2 c-2.1-0.8-3.9-1.9-5.5-3.3c-1.6-1.4-2.9-3.1-3.8-5c-1-1.9-1.4-4.1-1.4-6.4V88.6c0-2.5,0.5-4.7,1.4-6.6c0.9-2,2.1-3.6,3.7-5 c1.6-1.3,3.4-2.4,5.5-3.1C1128.1,73.2,1130.3,72.9,1132.8,72.9z"></path> <path class="st0" d="M326.3,135.3h25.3l-42.1,24.4l42.4,24.4h-25.7l-22.1-12.7c-1-0.6-2-1.2-2.8-1.7c-0.8-0.6-1.6-1.2-2.2-1.8 c-0.6-0.6-1.2-1.3-1.7-2.1c-0.5-0.7-1-1.6-1.3-2.5v20.8h-13.7v-48.9H296v21.1c0.4-0.9,0.9-1.8,1.4-2.6c0.6-0.8,1.2-1.5,1.9-2.1 c0.7-0.7,1.6-1.3,2.5-1.9c0.9-0.6,1.9-1.2,3.1-1.9L326.3,135.3z"></path> <path class="st0" d="M372.5,184.1h-14l19-36.8c1-1.9,1.9-3.6,2.8-5c0.9-1.5,1.9-2.8,2.9-3.8c1.1-1,2.3-1.8,3.6-2.4 c1.3-0.6,2.9-0.8,4.8-0.8c1.8,0,3.3,0.3,4.6,0.8c1.3,0.6,2.4,1.4,3.4,2.4c1,1.1,1.9,2.4,2.8,3.9s1.9,3.3,2.9,5.3l19,36.5h-13.5 l-7.3-12.8h-24.3L372.5,184.1z M385.6,158.8h11.6l-5.8-10.4L385.6,158.8z"></path> <path class="st0" d="M448.6,184.3l-17.5-0.1v-33.1c0-2.1,0.4-4.1,1.3-6c0.9-1.9,2.1-3.6,3.5-5c1.5-1.4,3.2-2.6,5.1-3.4 c1.9-0.9,3.9-1.3,5.9-1.3h52.6v12.9h-55.7v5.6h42.3c1.4,0,2.8,0.2,4.1,0.5c1.3,0.3,2.6,0.8,3.8,1.5c1.2,0.6,2.3,1.4,3.3,2.3 c1,0.9,1.9,1.9,2.6,3c0.7,1.1,1.3,2.3,1.7,3.6c0.4,1.3,0.6,2.7,0.6,4.1c0,2.2-0.5,4.3-1.4,6.2c-0.9,1.9-2.2,3.5-3.8,4.9 c-1.6,1.4-3.4,2.4-5.4,3.2c-2,0.8-4.1,1.1-6.3,1.1H448.6z M490.4,171.1v-5.7h-46.6v5.7H490.4z"></path> <path class="st0" d="M526.2,135.1h51.3v12.6h-56.2v5.7h56.2V166h-56.2v5.3h56.2v13H526c-2.3,0-4.4-0.4-6.5-1.2 c-2.1-0.8-3.9-1.9-5.5-3.3c-1.6-1.4-2.9-3.1-3.8-5c-0.9-1.9-1.4-4.1-1.4-6.4v-17.8c0-2.5,0.5-4.7,1.4-6.6c0.9-2,2.1-3.6,3.7-5 c1.6-1.3,3.4-2.4,5.5-3.1C521.5,135.4,523.7,135.1,526.2,135.1z"></path> <path class="st0" d="M596.9,184.4h-12.8v-33.2c0-1.3,0.2-2.6,0.6-3.9c0.4-1.3,0.9-2.5,1.7-3.7c0.7-1.2,1.5-2.3,2.5-3.3 c1-1,2-1.9,3.1-2.7c1.1-0.8,2.3-1.3,3.5-1.8c1.2-0.4,2.5-0.6,3.8-0.6h55.1v49.1h-13v-36.6h-44.5V184.4z"></path> <path class="st0" d="M715,184.4H661v-49.1h13v18.3h42.5c2.1,0,4.2,0.4,6.1,1.2c1.9,0.8,3.6,1.9,5.1,3.3c1.5,1.4,2.6,3,3.5,4.9 c0.9,1.9,1.3,3.9,1.3,6.1c0,2.2-0.5,4.3-1.5,6.1c-1,1.9-2.3,3.5-3.9,4.8c-1.6,1.3-3.5,2.4-5.6,3.2 C719.4,184,717.2,184.4,715,184.4z M674,171.9h45.5v-6.2H674V171.9z"></path> <path class="st0" d="M751.5,135.2v18h45.1v-18H809v48.9h-12.4v-18.5h-45.1v18.5h-12.4v-48.9H751.5z"></path> <path class="st0" d="M853.9,184.4h-38.3v-49.1h13.1v18.3h26.6c2.1,0,4.2,0.4,6.1,1.2c1.9,0.8,3.6,1.9,5.1,3.3s2.6,3,3.5,4.9 c0.9,1.9,1.3,3.9,1.3,6.1c0,2.2-0.5,4.3-1.5,6.1c-1,1.9-2.3,3.5-3.9,4.8c-1.6,1.3-3.5,2.4-5.6,3.2 C858.3,184,856.1,184.4,853.9,184.4z M828.8,171.9h29.5v-6.2h-29.5V171.9z M888.9,135.3v49.2h-12v-49.2H888.9z"></path> <path class="st0" d="M912.9,135.1h51.3v12.6H908v5.7h56.2V166H908v5.3h56.2v13h-51.4c-2.3,0-4.4-0.4-6.5-1.2 c-2.1-0.8-3.9-1.9-5.5-3.3c-1.6-1.4-2.9-3.1-3.8-5c-1-1.9-1.4-4.1-1.4-6.4v-17.8c0-2.5,0.5-4.7,1.4-6.6c0.9-2,2.1-3.6,3.7-5 c1.6-1.3,3.4-2.4,5.5-3.1C908.3,135.4,910.5,135.1,912.9,135.1z"></path> <path class="st0" d="M352.1,197.4v12.3h-56.9v24.4h56.9v12.2h-53.6c-2,0-4-0.4-5.9-1.1c-1.9-0.7-3.7-1.7-5.2-3 c-1.5-1.3-2.7-2.8-3.6-4.5c-0.9-1.8-1.4-3.7-1.4-5.8v-16.4c0-6.1,1.6-10.6,4.7-13.6c3.1-3,7.8-4.4,13.9-4.4H352.1z"></path> <path class="st0" d="M376,197.2h51.3v12.6h-56.2v5.7h56.2v12.7h-56.2v5.3h56.2v13h-51.4c-2.3,0-4.4-0.4-6.5-1.2 c-2.1-0.8-3.9-1.9-5.5-3.3c-1.6-1.4-2.9-3.1-3.8-5c-0.9-1.9-1.4-4.1-1.4-6.4v-17.8c0-2.5,0.5-4.7,1.4-6.6c0.9-2,2.1-3.6,3.7-5 c1.6-1.3,3.4-2.4,5.5-3.1C371.4,197.6,373.6,197.2,376,197.2z"></path> <path class="st0" d="M434,197.4h69.5v12.4H475v36.5h-12.6v-36.5H434V197.4z"></path> <path class="st0" d="M578.4,208.2v38.1H566v-36.6l-33.3,32.5c-1.6,1.7-3.2,2.9-5,3.7c-1.7,0.7-3.5,1.1-5.4,1.1 c-1.9,0-3.6-0.4-5.1-1.1c-1.5-0.7-2.8-1.7-3.8-3c-1-1.2-1.8-2.7-2.4-4.4c-0.6-1.7-0.8-3.4-0.8-5.3v-35.7h12.5V234l33.4-32.8 c3.2-3.2,6.6-4.8,10.2-4.8c1.6,0,3.1,0.2,4.6,0.7c1.5,0.5,2.8,1.2,3.9,2.1c1.1,1,2,2.2,2.7,3.7 C578.1,204.4,578.4,206.1,578.4,208.2z"></path> </g> </g> </svg> 